# xmcd CD database file
#
# Track frame offsets:
#	150
#	20205
#	36188
#	56136
#	73945
#	90360
#	108773
#	127896
#	145892
#	167874
#
# Disc length: 2516 seconds
#
# Revision: 1
# Processed by: cddbd v1.5.2PL0 Copyright (c) Steve Scherf et al.
# Submitted via: CDex 1.51
#
DISCID=8a09d20a
DTITLE=Sit Down, Servant!! - i was just trying to help
DYEAR=2012
DGENRE=Blues
TTITLE0=in my time of dying
TTITLE1=if you think your god is dead
TTITLE2=wrapped up, tangled up in jesus
TTITLE3=this may be the last time
TTITLE4=motherless children
TTITLE5=old landlady blue
TTITLE6=blackbird bakey pie blues
TTITLE7=between heaven and dripping springs
TTITLE8=tired all the time
TTITLE9=don't you miss me when i'm gone
EXTD=YEAR: 2012
EXTT0=
EXTT1=
EXTT2=
EXTT3=
EXTT4=
EXTT5=
EXTT6=
EXTT7=
EXTT8=
EXTT9=
PLAYORDER=
